HIERARCHY
ROOT Hips
{
	OFFSET 0.000000 87.230942 0.000000
	CHANNELS 6 Xposition Yposition Zposition Xrotation Yrotation Zrotation
	JOINT Pelvis
	{
		OFFSET 0.000000 0.000000 0.000000
		CHANNELS 3 Xrotation Yrotation Zrotation
		JOINT LeftUpLeg
		{
			OFFSET 12.017000 -9.376404 -2.439400
			CHANNELS 3 Xrotation Yrotation Zrotation
			JOINT LeftLeg
			{
				OFFSET -0.007312 -32.846973 2.110600
				CHANNELS 3 Xrotation Yrotation Zrotation
				JOINT LeftFoot
				{
					OFFSET 0.007312 -32.065170 -0.570400
					CHANNELS 3 Xrotation Yrotation Zrotation
					JOINT LeftToeBase
					{
						OFFSET 0.728300 -11.045900 13.180700
						CHANNELS 3 Xrotation Yrotation Zrotation
						End Site
						{
							OFFSET 0.000000 17.212589 0.000000
						}
					}
				}
				JOINT LeftPantLeg
				{
					OFFSET 0.002788 -16.709013 -3.143600
					CHANNELS 3 Xrotation Yrotation Zrotation
					End Site
					{
						OFFSET -0.605125 24.528742 0.000000
					}
				}
			}
			JOINT Left_Butt
			{
				OFFSET -6.630234 1.326584 -3.183700
				CHANNELS 3 Xrotation Yrotation Zrotation
				End Site
				{
					OFFSET -0.498041 20.188049 0.000000
				}
			}
		}
		JOINT RightUpLeg
		{
			OFFSET -11.717000 -9.376404 -2.439400
			CHANNELS 3 Xrotation Yrotation Zrotation
			JOINT RightLeg
			{
				OFFSET -0.003241 -32.846912 2.110600
				CHANNELS 3 Xrotation Yrotation Zrotation
				JOINT RightFoot
				{
					OFFSET 0.003241 -32.065136 -0.570500
					CHANNELS 3 Xrotation Yrotation Zrotation
					JOINT RightToeBase
					{
						OFFSET -0.728300 -11.045901 13.180700
						CHANNELS 3 Xrotation Yrotation Zrotation
						End Site
						{
							OFFSET 0.000000 17.212593 0.000000
						}
					}
				}
				JOINT RightPantLeg
				{
					OFFSET 0.008142 -16.708982 -3.143700
					CHANNELS 3 Xrotation Yrotation Zrotation
					End Site
					{
						OFFSET 0.605088 24.528715 0.000000
					}
				}
			}
			JOINT Right_Butt
			{
				OFFSET 6.630732 1.326584 -3.183700
				CHANNELS 3 Xrotation Yrotation Zrotation
				End Site
				{
					OFFSET 0.498015 20.188240 0.000000
				}
			}
		}
	}
	JOINT Spine
	{
		OFFSET -0.062400 7.848404 3.918300
		CHANNELS 3 Xrotation Yrotation Zrotation
		JOINT Spine1
		{
			OFFSET -0.072800 11.422302 0.713400
			CHANNELS 3 Xrotation Yrotation Zrotation
			JOINT Spine2
			{
				OFFSET -0.083200 13.054001 -1.931600
				CHANNELS 3 Xrotation Yrotation Zrotation
				JOINT Neck
				{
					OFFSET -0.092200 14.121796 -5.138800
					CHANNELS 3 Xrotation Yrotation Zrotation
					JOINT Head
					{
						OFFSET 0.000200 10.447403 -0.842000
						CHANNELS 3 Xrotation Yrotation Zrotation
						JOINT Visor
						{
							OFFSET 0.457100 25.671204 16.550400
							CHANNELS 3 Xrotation Yrotation Zrotation
							End Site
							{
								OFFSET 0.000000 26.061493 0.000000
							}
						}
						JOINT HairMidA
						{
							OFFSET 0.459400 31.585403 8.437400
							CHANNELS 3 Xrotation Yrotation Zrotation
							End Site
							{
								OFFSET 0.000000 26.061493 0.000000
							}
						}
						JOINT HairMidB
						{
							OFFSET 0.464000 33.309204 -8.389700
							CHANNELS 3 Xrotation Yrotation Zrotation
							End Site
							{
								OFFSET 0.000000 26.061493 0.000000
							}
						}
						JOINT HairMidC
						{
							OFFSET 0.466600 27.991196 -17.375099
							CHANNELS 3 Xrotation Yrotation Zrotation
							End Site
							{
								OFFSET 0.000000 26.061493 0.000000
							}
						}
						JOINT HairMidD
						{
							OFFSET 0.467700 17.888092 -21.169500
							CHANNELS 3 Xrotation Yrotation Zrotation
							End Site
							{
								OFFSET 0.000000 26.061493 0.000000
							}
						}
						JOINT HairMidE
						{
							OFFSET 5.325700 3.514603 -14.369699
							CHANNELS 3 Xrotation Yrotation Zrotation
							End Site
							{
								OFFSET 0.000000 26.061493 0.000000
							}
						}
						JOINT HairMidF
						{
							OFFSET -4.394100 3.514603 -14.372400
							CHANNELS 3 Xrotation Yrotation Zrotation
							End Site
							{
								OFFSET 0.000000 26.061493 0.000000
							}
						}
						JOINT HairLeftA
						{
							OFFSET 15.319900 25.746506 2.623300
							CHANNELS 3 Xrotation Yrotation Zrotation
							End Site
							{
								OFFSET 0.000000 26.061493 0.000000
							}
						}
						JOINT HairLeftB
						{
							OFFSET 12.619500 29.289398 -8.731499
							CHANNELS 3 Xrotation Yrotation Zrotation
							End Site
							{
								OFFSET 0.000000 26.061493 0.000000
							}
						}
						JOINT HairLeftC
						{
							OFFSET 15.714800 15.959900 2.909800
							CHANNELS 3 Xrotation Yrotation Zrotation
							End Site
							{
								OFFSET 0.000000 26.061493 0.000000
							}
						}
						JOINT HairLeftD
						{
							OFFSET 16.101700 18.437408 -7.553200
							CHANNELS 3 Xrotation Yrotation Zrotation
							End Site
							{
								OFFSET 0.000000 26.061493 0.000000
							}
						}
						JOINT HairLeftE
						{
							OFFSET 9.731900 17.915009 -18.316799
							CHANNELS 3 Xrotation Yrotation Zrotation
							End Site
							{
								OFFSET 0.000000 26.061493 0.000000
							}
						}
						JOINT HairLeftF
						{
							OFFSET 11.204300 4.953598 -9.668100
							CHANNELS 3 Xrotation Yrotation Zrotation
							End Site
							{
								OFFSET 0.000000 26.061493 0.000000
							}
						}
						JOINT HairRightA
						{
							OFFSET -14.397900 25.746307 2.615100
							CHANNELS 3 Xrotation Yrotation Zrotation
							End Site
							{
								OFFSET 0.000000 26.061493 0.000000
							}
						}
						JOINT HairRightB
						{
							OFFSET -11.691200 29.289200 -8.738199
							CHANNELS 3 Xrotation Yrotation Zrotation
							End Site
							{
								OFFSET 0.000000 26.061493 0.000000
							}
						}
						JOINT HairRightC
						{
							OFFSET -14.792900 15.959702 2.901400
							CHANNELS 3 Xrotation Yrotation Zrotation
							End Site
							{
								OFFSET 0.000000 26.061493 0.000000
							}
						}
						JOINT HairRightD
						{
							OFFSET -15.174000 18.437195 -7.561900
							CHANNELS 3 Xrotation Yrotation Zrotation
							End Site
							{
								OFFSET 0.000000 26.061493 0.000000
							}
						}
						JOINT HairRightE
						{
							OFFSET -8.798200 17.914902 -18.322001
							CHANNELS 3 Xrotation Yrotation Zrotation
							End Site
							{
								OFFSET 0.000000 26.061493 0.000000
							}
						}
						JOINT HairRightF
						{
							OFFSET -10.275200 4.953506 -9.674099
							CHANNELS 3 Xrotation Yrotation Zrotation
							End Site
							{
								OFFSET 0.000000 26.061493 0.000000
							}
						}
					}
				}
				JOINT LeftShoulder
				{
					OFFSET 5.133500 7.341202 -1.867600
					CHANNELS 3 Xrotation Yrotation Zrotation
					JOINT LeftArm
					{
						OFFSET 8.072663 0.936867 -2.176600
						CHANNELS 3 Xrotation Yrotation Zrotation
						JOINT LeftForeArm
						{
							OFFSET 31.271999 0.000000 0.000000
							CHANNELS 3 Xrotation Yrotation Zrotation
							JOINT LeftHand
							{
								OFFSET 31.771030 0.000000 0.000000
								CHANNELS 3 Xrotation Yrotation Zrotation
								JOINT LeftHandThumb1
								{
									OFFSET 2.886520 -2.557846 4.416640
									CHANNELS 3 Xrotation Yrotation Zrotation
									JOINT LeftHandThumb2
									{
										OFFSET 2.371025 -1.368912 1.368911
										CHANNELS 3 Xrotation Yrotation Zrotation
										JOINT LeftHandThumb3
										{
											OFFSET 2.243378 -1.295212 1.295213
											CHANNELS 3 Xrotation Yrotation Zrotation
											End Site
											{
												OFFSET -0.332611 2.876945 0.020015
											}
										}
									}
								}
								JOINT LeftHandIndex1
								{
									OFFSET 8.568985 -0.641945 3.119977
									CHANNELS 3 Xrotation Yrotation Zrotation
									JOINT LeftHandIndex2
									{
										OFFSET 3.348503 0.000000 0.000000
										CHANNELS 3 Xrotation Yrotation Zrotation
										JOINT LeftHandIndex3
										{
											OFFSET 3.314552 0.000000 0.000000
											CHANNELS 3 Xrotation Yrotation Zrotation
											End Site
											{
												OFFSET -1.032898 3.075485 0.678796
											}
										}
									}
								}
								JOINT LeftHandMiddle1
								{
									OFFSET 8.124603 0.000000 0.000000
									CHANNELS 3 Xrotation Yrotation Zrotation
									JOINT LeftHandMiddle2
									{
										OFFSET 4.166275 0.000000 0.000000
										CHANNELS 3 Xrotation Yrotation Zrotation
										JOINT LeftHandMiddle3
										{
											OFFSET 3.018135 0.000000 0.000000
											CHANNELS 3 Xrotation Yrotation Zrotation
											End Site
											{
												OFFSET -1.032700 2.767982 0.617226
											}
										}
									}
								}
								JOINT LeftHandRing1
								{
									OFFSET 8.571686 -0.031357 -2.884048
									CHANNELS 3 Xrotation Yrotation Zrotation
									JOINT LeftHandRing2
									{
										OFFSET 3.671181 0.000000 0.000000
										CHANNELS 3 Xrotation Yrotation Zrotation
										JOINT LeftHandRing3
										{
											OFFSET 2.728851 0.000000 0.000000
											CHANNELS 3 Xrotation Yrotation Zrotation
											End Site
											{
												OFFSET -0.815796 2.539223 0.577389
											}
										}
									}
								}
								JOINT LeftHandPinky1
								{
									OFFSET 7.854515 -0.675232 -5.213020
									CHANNELS 3 Xrotation Yrotation Zrotation
									JOINT LeftHandPinky2
									{
										OFFSET 3.068596 0.000000 0.000000
										CHANNELS 3 Xrotation Yrotation Zrotation
										JOINT LeftHandPinky3
										{
											OFFSET 2.396042 0.000000 0.000000
											CHANNELS 3 Xrotation Yrotation Zrotation
											End Site
											{
												OFFSET -0.524597 2.267998 0.567429
											}
										}
									}
								}
							}
							JOINT LeftSleeve
							{
								OFFSET 19.684509 -0.200119 0.476146
								CHANNELS 3 Xrotation Yrotation Zrotation
								End Site
								{
									OFFSET -0.031017 25.731133 -0.002868
								}
							}
						}
					}
				}
				JOINT RightShoulder
				{
					OFFSET -4.395900 7.341202 -1.870200
					CHANNELS 3 Xrotation Yrotation Zrotation
					JOINT RightArm
					{
						OFFSET -8.071453 0.936867 -2.181100
						CHANNELS 3 Xrotation Yrotation Zrotation
						JOINT RightForeArm
						{
							OFFSET -31.272011 0.000000 0.000000
							CHANNELS 3 Xrotation Yrotation Zrotation
							JOINT RightHand
							{
								OFFSET -31.771019 0.000000 0.000000
								CHANNELS 3 Xrotation Yrotation Zrotation
								JOINT RightHandThumb1
								{
									OFFSET -2.886520 -2.557808 4.416626
									CHANNELS 3 Xrotation Yrotation Zrotation
									JOINT RightHandThumb2
									{
										OFFSET -2.371056 -1.368927 1.368928
										CHANNELS 3 Xrotation Yrotation Zrotation
										JOINT RightHandThumb3
										{
											OFFSET -2.243362 -1.295204 1.295206
											CHANNELS 3 Xrotation Yrotation Zrotation
											End Site
											{
												OFFSET 0.332642 2.876938 0.020047
											}
										}
									}
								}
								JOINT RightHandIndex1
								{
									OFFSET -8.568993 -0.641953 3.120017
									CHANNELS 3 Xrotation Yrotation Zrotation
									JOINT RightHandIndex2
									{
										OFFSET -3.348518 0.000000 0.000000
										CHANNELS 3 Xrotation Yrotation Zrotation
										JOINT RightHandIndex3
										{
											OFFSET -3.314552 0.000000 0.000000
											CHANNELS 3 Xrotation Yrotation Zrotation
											End Site
											{
												OFFSET 1.032898 3.075478 0.678804
											}
										}
									}
								}
								JOINT RightHandMiddle1
								{
									OFFSET -8.124588 0.000000 0.000000
									CHANNELS 3 Xrotation Yrotation Zrotation
									JOINT RightHandMiddle2
									{
										OFFSET -4.166275 0.000000 0.000000
										CHANNELS 3 Xrotation Yrotation Zrotation
										JOINT RightHandMiddle3
										{
											OFFSET -3.018097 0.000000 0.000000
											CHANNELS 3 Xrotation Yrotation Zrotation
											End Site
											{
												OFFSET 1.032700 2.767937 0.617197
											}
										}
									}
								}
								JOINT RightHandRing1
								{
									OFFSET -8.571747 -0.031349 -2.884061
									CHANNELS 3 Xrotation Yrotation Zrotation
									JOINT RightHandRing2
									{
										OFFSET -3.671204 0.000000 0.000000
										CHANNELS 3 Xrotation Yrotation Zrotation
										JOINT RightHandRing3
										{
											OFFSET -2.728874 0.000000 0.000000
											CHANNELS 3 Xrotation Yrotation Zrotation
											End Site
											{
												OFFSET 0.815804 2.539261 0.577413
											}
										}
									}
								}
								JOINT RightHandPinky1
								{
									OFFSET -7.854561 -0.675247 -5.212970
									CHANNELS 3 Xrotation Yrotation Zrotation
									JOINT RightHandPinky2
									{
										OFFSET -3.068550 0.000000 0.000000
										CHANNELS 3 Xrotation Yrotation Zrotation
										JOINT RightHandPinky3
										{
											OFFSET -2.395981 0.000000 0.000000
											CHANNELS 3 Xrotation Yrotation Zrotation
											End Site
											{
												OFFSET 0.524605 2.267952 0.567413
											}
										}
									}
								}
							}
							JOINT RightSleeve
							{
								OFFSET -19.684753 -0.200165 0.476065
								CHANNELS 3 Xrotation Yrotation Zrotation
								End Site
								{
									OFFSET 0.031342 25.731255 -0.002917
								}
							}
						}
					}
				}
				JOINT Hood
				{
					OFFSET 0.369700 14.447800 -5.317800
					CHANNELS 3 Xrotation Yrotation Zrotation
					JOINT Hood1
					{
						OFFSET 0.001700 -5.553802 -5.895100
						CHANNELS 3 Xrotation Yrotation Zrotation
						JOINT Hood2
						{
							OFFSET -0.000200 -8.380501 0.763600
							CHANNELS 3 Xrotation Yrotation Zrotation
							End Site
							{
								OFFSET 0.000000 8.415215 0.000000
							}
						}
					}
				}
				JOINT Left_Breast
				{
					OFFSET 5.682500 3.120102 3.188800
					CHANNELS 3 Xrotation Yrotation Zrotation
					End Site
					{
						OFFSET 0.000000 10.528564 0.000000
					}
				}
				JOINT Right_Breast
				{
					OFFSET -4.947600 3.120102 3.185900
					CHANNELS 3 Xrotation Yrotation Zrotation
					End Site
					{
						OFFSET 0.000000 10.528564 0.000000
					}
				}
				JOINT Whistle
				{
					OFFSET 0.368200 11.471298 0.095400
					CHANNELS 3 Xrotation Yrotation Zrotation
					JOINT Whistle1
					{
						OFFSET -0.002000 -6.349899 7.479800
						CHANNELS 3 Xrotation Yrotation Zrotation
						JOINT Whistle2
						{
							OFFSET -0.001300 -8.217598 4.717600
							CHANNELS 3 Xrotation Yrotation Zrotation
							End Site
							{
								OFFSET 0.000000 9.475479 0.000000
							}
						}
					}
				}
			}
		}
		JOINT Belly
		{
			OFFSET 0.212400 1.593002 3.163700
			CHANNELS 3 Xrotation Yrotation Zrotation
			End Site
			{
				OFFSET 0.000000 7.496635 0.000000
			}
		}
	}
	JOINT FitGrandmaFacialAnim_Joint
	{
		OFFSET 1.150000 -86.211197 -1.220100
		CHANNELS 3 Xrotation Yrotation Zrotation
		End Site
		{
			OFFSET 0.000000 31.666618 0.000000
		}
	}
}
MOTION
Frames: 4
Frame Time: 0.016667
-67.638634 19.287994 5.091654 -59.370907 9.152821 97.663994 -0.000000 -0.000001 0.000001 -27.594244 25.621324 0.614104 60.938934 -3.526555 -7.508581 -24.765077 -11.448597 3.936793 0.000002 0.000001 -0.000001 -0.000000 0.000001 0.000000 -0.000000 -0.000000 -0.000000 -49.168664 -17.679774 -29.412967 121.938493 9.633042 7.616279 -12.620548 6.551156 24.531902 -0.000002 -0.000002 -0.000000 -0.000000 -0.000000 -0.000001 -0.000004 -0.000001 0.000000 13.673792 -0.156668 -5.021268 16.440315 0.246668 -3.275167 16.425630 0.382577 -3.359055 55.837872 6.471010 -15.932347 -15.707538 9.351472 1.833022 0.000001 0.000000 -0.000001 0.000001 0.000000 -0.000001 0.000001 0.000000 -0.000001 0.000001 0.000000 -0.000001 0.000001 0.000000 -0.000001 0.000001 0.000000 -0.000001 0.000001 0.000000 -0.000001 0.000001 0.000000 -0.000001 0.000001 0.000000 -0.000001 0.000001 0.000000 -0.000001 0.000001 0.000000 -0.000001 0.000001 0.000000 -0.000001 0.000001 0.000000 -0.000001 0.000001 0.000000 -0.000001 0.000001 0.000000 -0.000001 0.000001 0.000000 -0.000001 0.000001 0.000000 -0.000001 0.000001 0.000000 -0.000001 0.000001 0.000000 -0.000001 5.814960 1.516413 -4.688138 -74.915277 -6.740972 -27.974766 58.640821 -0.227365 0.365230 -133.094774 1.338646 -9.402777 40.109931 -15.297199 -0.360490 5.639808 28.097949 11.338847 -0.000003 -0.000002 -0.000004 6.882247 2.840044 -61.140397 8.247982 7.640031 -89.897878 -0.000001 0.000000 -0.000001 -2.345504 4.688852 -62.655210 8.754147 9.897058 -87.051321 -0.000001 0.000000 -0.000003 -9.042448 10.045675 -60.766171 8.524094 9.508859 -66.893049 0.000000 -0.000001 -0.000000 -17.946925 14.754967 -51.485857 8.868425 8.667033 -84.811982 -0.000001 0.000000 -0.000001 0.000001 0.000002 -0.000002 4.350979 9.519744 -3.915164 -1.908434 -4.831202 1.339520 32.754633 33.258759 -23.829342 -6.484607 12.966937 -27.297575 -1.264360 -6.049200 -2.222024 3.622075 -28.238630 -7.467054 -0.000003 0.000002 -0.000003 5.510550 -12.536705 32.643745 0.964249 -4.576405 40.090424 -0.000002 0.000002 -0.000000 2.422439 -10.452733 50.257655 1.705357 -6.329495 40.569964 -0.000005 0.000000 -0.000002 1.697849 -16.683514 49.417829 3.312913 -5.897110 49.275218 0.000003 -0.000001 -0.000001 -0.128115 -24.863984 64.179524 8.350099 -6.902179 80.012955 -0.000005 -0.000001 0.000001 -0.000001 0.000002 0.000000 -0.000001 0.000001 -0.000001 -0.000001 0.000001 -0.000001 -0.000001 0.000001 -0.000001 -0.000001 0.000001 -0.000001 -0.000001 0.000001 -0.000001 -0.000001 0.000001 -0.000001 -0.000000 0.000000 0.000001 -0.000000 0.000000 0.000001 -0.000000 0.000000 -0.000000 -0.000000 -0.000001 0.000001 
-68.539330 16.098473 5.413316 -58.896844 3.759197 100.326354 -0.000000 -0.000002 0.000001 -26.745450 21.684408 0.575325 64.807171 1.959923 -7.417138 -30.577029 -9.163763 1.999693 0.000001 0.000001 -0.000000 -0.000002 0.000001 -0.000000 -0.000001 0.000000 0.000000 -48.413716 -18.784919 -27.927296 123.996320 2.420991 5.597368 -21.626740 3.547398 23.435127 -0.000002 -0.000000 0.000000 -0.000000 0.000000 -0.000000 -0.000002 -0.000000 0.000000 15.966267 -0.852450 -4.467857 15.237940 -0.553108 -2.719566 15.233188 -0.442763 -2.765202 59.396110 3.808046 -15.534174 -14.123794 7.965990 -0.046236 -0.000000 0.000003 0.000001 -0.000000 0.000003 0.000001 -0.000000 0.000003 0.000001 -0.000000 0.000003 0.000001 -0.000000 0.000003 0.000001 -0.000000 0.000003 0.000001 -0.000000 0.000003 0.000001 -0.000000 0.000003 0.000001 -0.000000 0.000003 0.000001 -0.000000 0.000003 0.000001 -0.000000 0.000003 0.000001 -0.000000 0.000003 0.000001 -0.000000 0.000003 0.000001 -0.000000 0.000003 0.000001 -0.000000 0.000003 0.000001 -0.000000 0.000003 0.000001 -0.000000 0.000003 0.000001 -0.000000 0.000003 0.000001 -0.000000 0.000003 0.000001 5.850631 3.867382 -9.147225 -79.175464 -4.790788 -29.369629 66.580766 -0.196870 0.415276 -130.528549 2.100624 -1.414856 40.109931 -15.297208 -0.360491 5.639805 28.097949 11.338843 -0.000001 0.000001 -0.000004 6.882247 2.840042 -61.140404 8.247984 7.640028 -89.897878 0.000000 -0.000001 0.000000 -2.345504 4.688850 -62.655217 8.754145 9.897060 -87.051321 -0.000004 -0.000001 0.000002 -9.042446 10.045670 -60.766178 8.524094 9.508858 -66.893042 0.000002 0.000000 -0.000001 -17.946925 14.754969 -51.485864 8.868423 8.667035 -84.811982 -0.000000 -0.000000 0.000001 0.000001 0.000002 -0.000005 3.987313 5.771302 -5.369517 0.856448 3.213913 0.708516 26.740059 31.874918 -18.503117 -6.515415 15.387226 -26.510775 -1.549561 -6.169139 -1.948570 3.754899 -28.218816 -7.731320 0.000005 -0.000000 -0.000001 5.611888 -12.685511 32.943799 1.033070 -4.592745 40.333363 -0.000003 -0.000001 -0.000001 2.535955 -10.495709 50.782286 1.733152 -6.345976 40.670980 0.000000 0.000000 -0.000002 1.857070 -16.770044 49.979284 3.310360 -5.941018 49.419359 -0.000003 -0.000000 -0.000001 0.126695 -25.012651 64.844286 8.394846 -7.019037 80.688508 -0.000001 -0.000001 0.000001 0.000001 0.000000 -0.000000 0.000001 0.000002 -0.000003 0.000001 0.000002 -0.000003 0.000001 0.000002 -0.000003 0.000001 0.000002 -0.000003 0.000001 0.000002 -0.000003 0.000001 0.000002 -0.000003 0.000002 0.000000 -0.000001 0.000002 0.000000 -0.000001 0.000001 -0.000002 -0.000000 -0.000000 -0.000002 0.000001 
-69.067879 14.229080 5.699657 -58.184565 -0.937804 102.480179 0.000000 0.000002 -0.000000 -23.563750 17.001150 0.202160 66.386270 10.081636 -8.203371 -36.540966 -4.168718 -5.817978 0.000000 -0.000000 -0.000000 -0.000002 -0.000000 -0.000000 -0.000002 -0.000001 -0.000001 -47.511021 -19.063500 -25.684552 125.071719 -6.932272 3.834469 -27.406867 1.564133 20.845403 0.000000 -0.000000 -0.000001 -0.000000 0.000000 -0.000002 0.000003 0.000000 -0.000001 17.623997 -1.660875 -3.559517 13.624162 -1.732711 -2.465768 13.638208 -1.655714 -2.445540 61.075517 1.954520 -14.888470 -12.574472 6.608047 -1.023415 -0.000000 0.000000 0.000000 -0.000000 0.000000 0.000000 -0.000000 0.000000 0.000000 -0.000000 0.000000 0.000000 -0.000000 0.000000 0.000000 -0.000000 0.000000 0.000000 -0.000000 0.000000 0.000000 -0.000000 0.000000 0.000000 -0.000000 0.000000 0.000000 -0.000000 0.000000 0.000000 -0.000000 0.000000 0.000000 -0.000000 0.000000 0.000000 -0.000000 0.000000 0.000000 -0.000000 0.000000 0.000000 -0.000000 0.000000 0.000000 -0.000000 0.000000 0.000000 -0.000000 0.000000 0.000000 -0.000000 0.000000 0.000000 -0.000000 0.000000 0.000000 5.241387 7.707914 -14.772695 -82.451503 -2.394244 -28.832865 71.492123 -0.210160 0.553460 -123.104434 0.006986 2.277088 40.109934 -15.297201 -0.360493 5.639800 28.097954 11.338848 -0.000002 0.000001 0.000001 6.882249 2.840044 -61.140397 8.247983 7.640029 -89.897878 -0.000001 -0.000002 0.000000 -2.345503 4.688851 -62.655210 8.754143 9.897059 -87.051321 -0.000001 0.000001 -0.000003 -9.042445 10.045675 -60.766178 8.524099 9.508854 -66.893042 -0.000001 -0.000000 0.000000 -17.946921 14.754974 -51.485864 8.868425 8.667029 -84.811982 0.000002 -0.000002 0.000001 0.000000 -0.000004 0.000001 4.001936 5.115522 -8.837086 0.941030 11.676198 -0.032731 16.412166 34.300148 -10.963359 -9.500786 4.579478 -16.821540 -1.829267 -6.289129 -1.679240 3.885953 -28.199297 -7.991205 0.000004 0.000001 0.000001 5.712086 -12.831479 33.221190 1.100942 -4.608038 40.554347 -0.000002 -0.000000 -0.000000 2.647846 -10.536386 51.279858 1.759844 -6.362490 40.753020 -0.000002 0.000003 0.000001 2.014517 -16.852430 50.513757 3.308019 -5.984395 49.543324 0.000000 0.000001 -0.000002 0.379767 -25.154287 65.481734 8.441254 -7.134596 81.335020 -0.000003 0.000000 -0.000002 -0.000004 -0.000000 0.000001 -0.000002 0.000001 -0.000002 -0.000002 0.000001 -0.000002 -0.000002 0.000001 -0.000002 -0.000002 0.000001 -0.000002 -0.000002 0.000001 -0.000002 -0.000002 0.000001 -0.000002 -0.000000 0.000001 -0.000002 -0.000000 0.000001 -0.000002 -0.000000 0.000000 -0.000001 0.000000 0.000002 -0.000000 
-69.476990 13.256493 5.849666 -58.003312 -4.950441 104.874584 -0.000000 -0.000001 -0.000001 -19.586285 12.802180 -1.491265 66.498373 19.759490 -8.788520 -39.013381 1.452420 -13.392982 -0.000000 -0.000000 0.000000 0.000003 -0.000001 -0.000001 -0.000003 -0.000000 -0.000001 -45.971459 -17.530379 -26.004139 123.821617 -9.130912 3.325525 -27.535132 0.274101 17.145493 0.000001 -0.000000 0.000001 0.000000 -0.000000 0.000003 0.000004 0.000000 -0.000001 17.585089 -1.775318 -4.165086 12.355798 -1.761861 -1.940312 12.378808 -1.624621 -1.926817 59.987700 0.650057 -12.018807 -12.691763 2.856336 1.482942 -0.000000 -0.000001 -0.000001 -0.000000 -0.000001 -0.000001 -0.000000 -0.000001 -0.000001 -0.000000 -0.000001 -0.000001 -0.000000 -0.000001 -0.000001 -0.000000 -0.000001 -0.000001 -0.000000 -0.000001 -0.000001 -0.000000 -0.000001 -0.000001 -0.000000 -0.000001 -0.000001 -0.000000 -0.000001 -0.000001 -0.000000 -0.000001 -0.000001 -0.000000 -0.000001 -0.000001 -0.000000 -0.000001 -0.000001 -0.000000 -0.000001 -0.000001 -0.000000 -0.000001 -0.000001 -0.000000 -0.000001 -0.000001 -0.000000 -0.000001 -0.000001 -0.000000 -0.000001 -0.000001 -0.000000 -0.000001 -0.000001 3.701487 9.640395 -19.253683 -85.769773 -1.001385 -27.598651 69.277980 -0.255673 0.574480 -109.058498 -7.133552 4.798845 40.109931 -15.297206 -0.360491 5.639803 28.097945 11.338841 -0.000004 -0.000001 0.000001 6.882248 2.840044 -61.140404 8.247982 7.640028 -89.897878 0.000000 0.000000 -0.000003 -2.345504 4.688850 -62.655210 8.754144 9.897059 -87.051321 -0.000001 0.000000 0.000000 -9.042449 10.045671 -60.766178 8.524097 9.508855 -66.893042 -0.000000 -0.000002 0.000003 -17.946925 14.754971 -51.485874 8.868429 8.667032 -84.811982 0.000001 -0.000001 0.000001 0.000001 -0.000000 -0.000002 3.553665 17.233476 -9.962816 5.185758 5.341667 -2.433863 15.662657 31.146407 -9.027889 -12.315960 0.733332 -13.862416 -2.103291 -6.408978 -1.414480 4.016374 -28.183503 -8.246986 -0.000002 -0.000001 -0.000001 5.811181 -12.974694 33.475362 1.167857 -4.622525 40.751846 -0.000000 -0.000002 -0.000001 2.758031 -10.575059 51.750158 1.786555 -6.378080 40.814335 0.000000 0.000002 -0.000001 2.170258 -16.931252 51.020680 3.305862 -6.027671 49.645944 0.000002 0.000002 -0.000002 0.630561 -25.289028 66.090563 8.488884 -7.248937 81.951041 0.000001 0.000001 0.000000 -0.000000 0.000003 0.000001 0.000002 0.000002 -0.000003 0.000002 0.000002 -0.000003 0.000002 0.000002 -0.000003 0.000002 0.000002 -0.000003 0.000002 0.000002 -0.000003 0.000002 0.000002 -0.000002 0.000002 0.000000 -0.000001 0.000002 0.000000 -0.000001 0.000000 0.000000 -0.000001 -0.000000 -0.000001 -0.000001 
